<svg viewBox="0 0 200 300" xmlns="http://www.w3.org/2000/svg">
  <!-- Phone outline -->
  <rect x="20" y="20" width="160" height="260" rx="30" ry="30" fill="none" stroke="#4A9AA1" stroke-width="8"/>
  
  <!-- Screen -->
  <rect x="35" y="45" width="130" height="210" rx="15" ry="15" fill="#f8f9fa"/>
  
  <!-- Top notch -->
  <rect x="75" y="25" width="50" height="15" rx="7" ry="7" fill="#4A9AA1"/>
  
  <!-- Profile section -->
  <rect x="45" y="65" width="80" height="8" rx="4" fill="#4A9AA1"/>
  <rect x="45" y="80" width="50" height="8" rx="4" fill="#4A9AA1"/>
  <circle cx="140" cy="85" r="12" fill="#4A9AA1"/>
  <path d="M 130 95 Q 140 85 150 95 L 150 105 L 130 105 Z" fill="#4A9AA1"/>
  
  <!-- Main content area -->
  <rect x="45" y="120" width="110" height="50" rx="8" fill="#4A9AA1"/>
  
  <!-- QR Code -->
  <g transform="translate(50, 180)">
    <!-- QR code blocks -->
    <rect x="0" y="0" width="12" height="12" fill="#4A9AA1"/>
    <rect x="18" y="0" width="6" height="12" fill="#4A9AA1"/>
    <rect x="30" y="0" width="12" height="12" fill="#4A9AA1"/>
    
    <rect x="0" y="18" width="12" height="6" fill="#4A9AA1"/>
    <rect x="18" y="18" width="6" height="6" fill="#4A9AA1"/>
    <rect x="30" y="18" width="12" height="6" fill="#4A9AA1"/>
    
    <rect x="0" y="30" width="12" height="12" fill="#4A9AA1"/>
    <rect x="18" y="30" width="6" height="12" fill="#4A9AA1"/>
    <rect x="30" y="30" width="12" height="12" fill="#4A9AA1"/>
  </g>
  
  <!-- VLabel text -->
  <text x="100" y="320" font-family="Inter, system-ui, -apple-system, sans-serif" font-size="32" font-weight="700" fill="#4A9AA1" text-anchor="middle">VLabel</text>
</svg>